<svg width="233" height="106" viewBox="0 0 233 106" fill="none" xmlns="http://www.w3.org/2000/svg">
<g filter="url(#filter0_dd_5129_40407)">
<path d="M164.039 74.8102C157.831 74.8102 152.519 73.1782 148.103 69.9142C143.687 66.5862 140.647 62.0102 138.983 56.1862L138.887 55.8022C138.887 55.2262 139.239 54.8422 139.943 54.6502L149.639 52.0582L150.023 51.9622C150.599 51.9622 150.983 52.2822 151.175 52.9222C153.415 59.0662 157.703 62.1382 164.039 62.1382C167.751 62.1382 170.695 61.2102 172.871 59.3542C175.047 57.4982 176.135 55.0342 176.135 51.9622C176.135 48.9542 174.983 46.6182 172.679 44.9542C170.375 43.2902 167.239 42.4582 163.271 42.4582H160.295C159.463 42.4582 159.047 42.0422 159.047 41.2102V32.6662C159.047 31.8342 159.463 31.4182 160.295 31.4182H163.271C166.535 31.4182 169.191 30.6502 171.239 29.1142C173.287 27.5782 174.311 25.5942 174.311 23.1622C174.311 20.6022 173.319 18.4902 171.335 16.8262C169.351 15.1622 166.823 14.3302 163.751 14.3302C160.807 14.3302 158.311 15.1622 156.263 16.8262C154.279 18.4262 152.775 20.6662 151.751 23.5462C151.495 24.3142 150.983 24.6022 150.215 24.4102L140.519 21.8182C139.687 21.6262 139.367 21.1142 139.559 20.2822C141.223 14.4582 144.199 9.9142 148.487 6.6502C152.839 3.3222 158.023 1.6582 164.039 1.6582C168.519 1.6582 172.551 2.4902 176.135 4.1542C179.783 5.7542 182.631 8.0262 184.679 10.9702C186.727 13.8502 187.751 17.1142 187.751 20.7622C187.751 24.2182 186.759 27.3222 184.775 30.0742C182.855 32.8262 180.167 35.0022 176.711 36.6022C180.743 37.9462 183.879 40.0902 186.119 43.0342C188.423 45.9782 189.575 49.5622 189.575 53.7862C189.575 57.9462 188.487 61.6262 186.311 64.8262C184.199 67.9622 181.191 70.4262 177.287 72.2182C173.447 73.9462 169.031 74.8102 164.039 74.8102Z" fill="#0EA5E9"/>
<path d="M102.893 74.8102C97.2609 74.8102 92.3969 73.3702 88.3009 70.4902C84.2049 67.5462 81.0689 63.3542 78.8929 57.9142C76.7169 52.4102 75.6289 45.8502 75.6289 38.2342C75.6289 30.6182 76.7169 24.0902 78.8929 18.6502C81.0689 13.1462 84.2049 8.9542 88.3009 6.0742C92.3969 3.1302 97.2609 1.6582 102.893 1.6582C108.589 1.6582 113.485 3.1302 117.581 6.0742C121.677 8.9542 124.813 13.1462 126.989 18.6502C129.165 24.0902 130.253 30.6182 130.253 38.2342C130.253 45.8502 129.165 52.4102 126.989 57.9142C124.813 63.3542 121.677 67.5462 117.581 70.4902C113.485 73.3702 108.589 74.8102 102.893 74.8102ZM102.893 62.1382C107.309 62.1382 110.733 60.1542 113.165 56.1862C115.597 52.2182 116.813 46.2342 116.813 38.2342C116.813 30.2342 115.597 24.2502 113.165 20.2822C110.733 16.3142 107.309 14.3302 102.893 14.3302C98.4769 14.3302 95.0529 16.3142 92.6209 20.2822C90.2529 24.2502 89.0689 30.2342 89.0689 38.2342C89.0689 46.2342 90.2529 52.2182 92.6209 56.1862C95.0529 60.1542 98.4769 62.1382 102.893 62.1382Z" fill="#0EA5E9"/>
<path d="M45.8532 73.4658C45.0212 73.4658 44.6052 73.0498 44.6052 72.2178V59.8338H11.1972C10.3652 59.8338 9.94922 59.4178 9.94922 58.5858V55.4178C9.94922 54.7778 10.1092 54.2658 10.4292 53.8818L47.5812 3.76983C47.9652 3.25783 48.4772 3.00183 49.1172 3.00183H56.3172C57.1492 3.00183 57.5652 3.41783 57.5652 4.24983V47.6418H66.6852C67.5172 47.6418 67.9332 48.0578 67.9332 48.8898V58.5858C67.9332 59.4178 67.5172 59.8338 66.6852 59.8338H57.5652V72.2178C57.5652 73.0498 57.1492 73.4658 56.3172 73.4658H45.8532ZM44.6052 25.4658L28.5732 47.6418H44.6052V25.4658Z" fill="#0EA5E9"/>
</g>
<foreignObject x="163.422" y="35.2992" width="53.9185" height="53.9183"><div xmlns="http://www.w3.org/1999/xhtml" style="backdrop-filter:blur(2.25px);clip-path:url(#bgblur_0_5129_40407_clip_path);height:100%;width:100%"></div></foreignObject><circle data-figma-bg-blur-radius="4.5" cx="190.381" cy="62.2584" r="22.4592" fill="white" fill-opacity="0.15"/>
<path fill-rule="evenodd" clip-rule="evenodd" d="M189.617 32.3254C184.825 32.326 180.103 33.4744 175.846 35.6748C171.589 37.8751 167.921 41.0632 165.149 44.9722C162.377 48.8812 160.582 53.3974 159.914 58.1426C159.245 62.8879 159.724 67.7242 161.309 72.2467C162.893 76.7691 165.538 80.8461 169.022 84.1364C172.506 87.4266 176.728 89.8344 181.334 91.1582C185.939 92.4819 190.795 92.6831 195.494 91.7448C200.194 90.8066 204.6 88.7562 208.344 85.7654L220.594 98.0154C221.223 98.6226 222.065 98.9586 222.939 98.951C223.813 98.9434 224.649 98.5929 225.267 97.9748C225.885 97.3568 226.235 96.5208 226.243 95.6468C226.251 94.7728 225.915 93.9308 225.307 93.3021L213.057 81.0521C216.584 76.6383 218.793 71.3184 219.429 65.7047C220.065 60.091 219.104 54.4116 216.655 49.3204C214.205 44.2292 210.368 39.933 205.585 36.9264C200.802 33.9198 195.267 32.325 189.617 32.3254ZM169.617 62.3254C169.617 59.699 170.135 57.0983 171.14 54.6718C172.145 52.2453 173.618 50.0405 175.475 48.1833C177.332 46.3261 179.537 44.8529 181.964 43.8478C184.39 42.8428 186.991 42.3254 189.617 42.3254C192.244 42.3254 194.845 42.8428 197.271 43.8478C199.698 44.8529 201.902 46.3261 203.759 48.1833C205.617 50.0405 207.09 52.2453 208.095 54.6718C209.1 57.0983 209.617 59.699 209.617 62.3254C209.617 67.6298 207.51 72.7169 203.759 76.4676C200.009 80.2183 194.922 82.3254 189.617 82.3254C184.313 82.3254 179.226 80.2183 175.475 76.4676C171.724 72.7169 169.617 67.6298 169.617 62.3254Z" fill="#045A80"/>
<defs>
<filter id="filter0_dd_5129_40407" x="0.000128269" y="2.14577e-05" width="199.524" height="93.0502" filterUnits="userSpaceOnUse" color-interpolation-filters="sRGB">
<feFlood flood-opacity="0" result="BackgroundImageFix"/>
<feColorMatrix in="SourceAlpha" type="matrix" values="0 0 0 0 0 0 0 0 0 0 0 0 0 0 0 0 0 0 127 0" result="hardAlpha"/>
<feMorphology radius="2.48727" operator="erode" in="SourceAlpha" result="effect1_dropShadow_5129_40407"/>
<feOffset dy="8.29091"/>
<feGaussianBlur stdDeviation="6.21818"/>
<feColorMatrix type="matrix" values="0 0 0 0 0 0 0 0 0 0 0 0 0 0 0 0 0 0 0.1 0"/>
<feBlend mode="normal" in2="BackgroundImageFix" result="effect1_dropShadow_5129_40407"/>
<feColorMatrix in="SourceAlpha" type="matrix" values="0 0 0 0 0 0 0 0 0 0 0 0 0 0 0 0 0 0 127 0" result="hardAlpha"/>
<feMorphology radius="3.31636" operator="erode" in="SourceAlpha" result="effect2_dropShadow_5129_40407"/>
<feOffset dy="3.31636"/>
<feGaussianBlur stdDeviation="2.48727"/>
<feColorMatrix type="matrix" values="0 0 0 0 0 0 0 0 0 0 0 0 0 0 0 0 0 0 0.1 0"/>
<feBlend mode="normal" in2="effect1_dropShadow_5129_40407" result="effect2_dropShadow_5129_40407"/>
<feBlend mode="normal" in="SourceGraphic" in2="effect2_dropShadow_5129_40407" result="shape"/>
</filter>
<clipPath id="bgblur_0_5129_40407_clip_path" transform="translate(-163.422 -35.2992)"><circle cx="190.381" cy="62.2584" r="22.4592"/>
</clipPath></defs>
</svg>
