<svg width="165" height="165" viewBox="0 0 165 165" fill="none" xmlns="http://www.w3.org/2000/svg">
<circle cx="80" cy="80" r="80" fill="#F5F5F5"/>
<path d="M90.0373 19.5718C91.3926 18.7037 93.1949 19.0986 94.063 20.4539L110.567 46.2197C111.435 47.575 111.04 49.3773 109.685 50.2454L48.1017 89.6922C46.7464 90.5603 44.9441 90.1654 44.076 88.8101L27.5719 63.0443C26.7038 61.689 27.0987 59.8867 28.4539 59.0186L90.0373 19.5718Z" fill="#CDCDCD"/>
<circle cx="49.0244" cy="67.6438" r="8.74241" transform="rotate(-32.6413 49.0244 67.6438)" fill="#797979"/>
<path d="M58.9839 53.4775L83.5228 37.7593" stroke="#A3A3A3" stroke-width="2.91414" stroke-linecap="round"/>
<path d="M62.5205 58.999L87.0594 43.2808" stroke="#A3A3A3" stroke-width="2.91414" stroke-linecap="round"/>
<path d="M66.0571 64.52L90.596 48.8018" stroke="#A3A3A3" stroke-width="2.91414" stroke-linecap="round"/>
<path d="M122.344 38.7702C123.896 38.3448 125.5 39.2583 125.925 40.8105L134.012 70.321C134.437 71.8732 133.523 73.4764 131.971 73.9017L61.4376 93.2297C59.8854 93.6551 58.2823 92.7416 57.8569 91.1894L49.7703 61.6789C49.345 60.1267 50.2585 58.5235 51.8107 58.0982L122.344 38.7702Z" fill="#D9D9D9"/>
<circle cx="68.8812" cy="72.4551" r="8.74241" transform="rotate(-15.3243 68.8812 72.4551)" fill="#B9B9B9"/>
<path d="M82.606 61.8955L110.711 54.1939" stroke="#A3A3A3" stroke-width="2.91414" stroke-linecap="round"/>
<path d="M84.3389 68.2192L112.444 60.5177" stroke="#A3A3A3" stroke-width="2.91414" stroke-linecap="round"/>
<path d="M86.0718 74.543L114.177 66.8414" stroke="#A3A3A3" stroke-width="2.91414" stroke-linecap="round"/>
<path d="M126.474 78C128.683 78 130.474 79.7909 130.474 82V127C130.473 129.209 128.683 131 126.474 131H28C25.791 131 24.0002 129.209 24 127V82C24 79.7909 25.7909 78 28 78H126.474Z" fill="#878787"/>
<path d="M78 118L29 78L127 78L78 118Z" fill="#B4B4B4"/>
</svg>
