<svg width="160" height="164" viewBox="0 0 160 164" fill="none" xmlns="http://www.w3.org/2000/svg">
<circle cx="80" cy="83.4531" r="80" fill="#F5F5F5"/>
<path d="M81.1591 72.0272C82.4754 67.1147 87.5248 64.1994 92.4373 65.5157L135.328 77.0081C140.24 78.3244 143.155 83.3738 141.839 88.2863L128.54 137.919C127.224 142.831 122.174 145.747 117.262 144.43L74.3716 132.938C69.4591 131.622 66.5438 126.572 67.8601 121.66L81.1591 72.0272Z" fill="#A3A3A3"/>
<path d="M85.2803 75.9094C86.2676 72.2251 90.0546 70.0386 93.739 71.0258L131.445 81.1291C135.129 82.1163 137.316 85.9034 136.329 89.5878L130.613 110.92C129.625 114.604 125.838 116.791 122.154 115.803L84.4481 105.7C80.7637 104.713 78.5772 100.926 79.5645 97.2414L85.2803 75.9094Z" fill="white"/>
<path fill-rule="evenodd" clip-rule="evenodd" d="M107.998 95.4476C108.251 96.2407 109.236 96.5114 109.859 95.9589L112.457 93.653C113.075 93.1046 114.053 93.3665 114.314 94.1504L118.521 106.788C118.81 107.658 118.016 108.501 117.13 108.263L100.897 103.914C100.897 103.913 100.897 103.913 100.897 103.913C100.897 103.913 100.897 103.913 100.897 103.912L90.2897 101.07C89.4105 100.835 89.1396 99.7202 89.8126 99.1074L103.484 86.6588C104.104 86.094 105.101 86.3611 105.356 87.1603L107.998 95.4476Z" fill="#A3A3A3"/>
<circle cx="100.156" cy="82.0363" r="1.9943" transform="rotate(15 100.156 82.0363)" fill="#A3A3A3"/>
<path d="M21.3858 87.3123C20.0695 82.3998 22.9848 77.3504 27.8973 76.0341L70.7876 64.5417C75.7001 63.2254 80.7495 66.1407 82.0658 71.0532L95.3648 120.686C96.6811 125.598 93.7658 130.648 88.8533 131.964L45.963 143.456C41.0505 144.773 36.0011 141.857 34.6848 136.945L21.3858 87.3123Z" fill="#D4D4D4"/>
<path d="M26.8964 88.6145C25.9092 84.9301 28.0957 81.1431 31.78 80.1558L69.486 70.0526C73.1704 69.0653 76.9574 71.2518 77.9447 74.9362L83.6605 96.2682C84.6478 99.9525 82.4613 103.74 78.7769 104.727L41.071 114.83C37.3866 115.817 33.5995 113.631 32.6123 109.946L26.8964 88.6145Z" fill="white"/>
<path fill-rule="evenodd" clip-rule="evenodd" d="M56.3396 94.1772C56.9551 94.7376 57.9436 94.4795 58.2066 93.6897L59.3043 90.3932C59.5653 89.6094 60.5426 89.3476 61.1605 89.896L71.1225 98.7369C71.8083 99.3454 71.542 100.472 70.6564 100.71L54.4228 105.059C54.4225 105.06 54.4223 105.059 54.4225 105.059C54.4226 105.059 54.4224 105.059 54.4221 105.059L43.8151 107.901C42.9359 108.136 42.1441 107.307 42.4205 106.439L48.0362 88.8227C48.291 88.0235 49.2876 87.7564 49.9078 88.3212L56.3396 94.1772Z" fill="#D4D4D4"/>
<circle cx="42.8424" cy="86.4825" r="1.9943" transform="rotate(-15 42.8424 86.4825)" fill="#D4D4D4"/>
<path d="M83.8696 0C99.6747 0.000124088 112.487 12.7727 112.487 28.5283C112.487 44.2838 99.6745 57.0565 83.8696 57.0566C83.0125 57.0566 82.1641 57.0185 81.3262 56.9446C80.597 56.8803 79.8699 57.1278 79.3591 57.6521L75.5715 61.5396C74.1583 62.9901 71.695 62.0692 71.58 60.0473L71.3209 55.4928C71.2732 54.6538 70.7729 53.9122 70.0371 53.5064C61.2216 48.6449 55.2516 39.2822 55.2515 28.5283C55.2515 12.7726 68.0645 0 83.8696 0Z" fill="#404040"/>
<circle cx="70.7913" cy="28.2014" r="2.8777" fill="white"/>
<circle cx="83.4534" cy="28.2014" r="2.8777" fill="white"/>
<circle cx="96.115" cy="28.2014" r="2.8777" fill="white"/>
</svg>
