<svg width="160" height="164" viewBox="0 0 160 164" fill="none" xmlns="http://www.w3.org/2000/svg">
<circle cx="80" cy="83.4531" r="80" fill="#F5F5F5"/>
<path d="M81.1591 72.0269C82.4754 67.1144 87.5248 64.1992 92.4373 65.5154L135.328 77.0079C140.24 78.3242 143.155 83.3736 141.839 88.2861L128.54 137.919C127.224 142.831 122.174 145.746 117.262 144.43L74.3716 132.938C69.4591 131.621 66.5438 126.572 67.8601 121.659L81.1591 72.0269Z" fill="#A3A3A3"/>
<path d="M85.2803 75.9092C86.2676 72.2248 90.0546 70.0383 93.739 71.0256L131.445 81.1288C135.129 82.1161 137.316 85.9031 136.329 89.5875L130.613 110.92C129.625 114.604 125.838 116.79 122.154 115.803L84.4481 105.7C80.7637 104.713 78.5772 100.926 79.5645 97.2412L85.2803 75.9092Z" fill="white"/>
<path fill-rule="evenodd" clip-rule="evenodd" d="M107.998 95.4473C108.251 96.2404 109.236 96.5112 109.859 95.9587L112.457 93.6527C113.075 93.1044 114.053 93.3663 114.314 94.1501L118.521 106.788C118.81 107.658 118.016 108.5 117.13 108.263L100.897 103.913C100.897 103.913 100.897 103.913 100.897 103.913C100.897 103.913 100.897 103.912 100.897 103.912L90.2897 101.07C89.4105 100.835 89.1396 99.7199 89.8126 99.1071L103.484 86.6585C104.104 86.0938 105.101 86.3608 105.356 87.16L107.998 95.4473Z" fill="#A3A3A3"/>
<circle cx="100.156" cy="82.0358" r="1.9943" transform="rotate(15 100.156 82.0358)" fill="#A3A3A3"/>
<path d="M21.3858 87.3119C20.0695 82.3994 22.9848 77.3499 27.8973 76.0336L70.7876 64.5412C75.7001 63.2249 80.7495 66.1402 82.0658 71.0527L95.3648 120.685C96.6811 125.598 93.7658 130.647 88.8533 131.963L45.963 143.456C41.0505 144.772 36.0011 141.857 34.6848 136.944L21.3858 87.3119Z" fill="#D4D4D4"/>
<path d="M26.8964 88.614C25.9092 84.9296 28.0957 81.1426 31.78 80.1553L69.486 70.0521C73.1704 69.0648 76.9574 71.2513 77.9447 74.9357L83.6605 96.2677C84.6478 99.952 82.4613 103.739 78.7769 104.726L41.071 114.83C37.3866 115.817 33.5995 113.63 32.6123 109.946L26.8964 88.614Z" fill="white"/>
<path fill-rule="evenodd" clip-rule="evenodd" d="M56.3396 94.1767C56.9551 94.7371 57.9436 94.479 58.2066 93.6892L59.3043 90.3927C59.5653 89.6089 60.5426 89.3471 61.1605 89.8955L71.1225 98.7364C71.8083 99.345 71.542 100.472 70.6564 100.709L54.4228 105.059C54.4225 105.059 54.4223 105.059 54.4225 105.059C54.4226 105.058 54.4224 105.058 54.4221 105.058L43.8151 107.9C42.9359 108.136 42.1441 107.306 42.4205 106.439L48.0362 88.8222C48.291 88.023 49.2876 87.7559 49.9078 88.3207L56.3396 94.1767Z" fill="#D4D4D4"/>
<circle cx="42.8424" cy="86.482" r="1.9943" transform="rotate(-15 42.8424 86.482)" fill="#D4D4D4"/>
<path d="M83.8696 0C99.6747 0.000124088 112.487 12.7727 112.487 28.5283C112.487 44.2838 99.6745 57.0565 83.8696 57.0566C83.0125 57.0566 82.1641 57.0185 81.3262 56.9446C80.597 56.8803 79.8699 57.1278 79.3591 57.6521L75.5715 61.5396C74.1583 62.9901 71.695 62.0692 71.58 60.0473L71.3209 55.4928C71.2732 54.6538 70.7729 53.9122 70.0371 53.5064C61.2216 48.6449 55.2516 39.2822 55.2515 28.5283C55.2515 12.7726 68.0645 0 83.8696 0Z" fill="#404040"/>
<circle cx="70.7913" cy="28.2014" r="2.8777" fill="white"/>
<circle cx="83.4534" cy="28.2014" r="2.8777" fill="white"/>
<circle cx="96.115" cy="28.2014" r="2.8777" fill="white"/>
</svg>
