<svg width="165" height="160" viewBox="0 0 165 160" fill="none" xmlns="http://www.w3.org/2000/svg">
<circle cx="80" cy="80" r="80" fill="#F5F5F5"/>
<path d="M113 35C112.57 35 112.128 35.0793 111.686 35.2605L46.3906 61.4965H27.8125C26.8156 61.4965 26 62.3348 26 63.377V97.248C26 98.2902 26.8156 99.1285 27.8125 99.1285H39.3219C38.9027 100.443 38.6875 101.836 38.6875 103.252C38.6875 110.717 44.782 116.789 52.2812 116.789C58.557 116.789 63.8473 112.53 65.4105 106.775L111.697 125.376C112.139 125.546 112.581 125.636 113.011 125.636C114.926 125.636 116.636 124.028 116.636 121.875V38.7609C116.625 36.6086 114.926 35 113 35ZM52.2812 108.667C49.2793 108.667 46.8437 106.243 46.8437 103.252C46.8437 101.983 47.2855 100.771 48.0898 99.8082L57.7074 103.671C57.4809 106.458 55.1359 108.667 52.2812 108.667Z" fill="#D4D4D4"/>
<path d="M106 59.5C106 48.1782 115.178 39 126.5 39C137.822 39 147 48.1782 147 59.5C147 70.8218 137.822 80 126.5 80C115.178 80 106 70.8218 106 59.5Z" fill="#A3A3A3"/>
<path d="M116.933 71.4582L114.542 69.0665L124.108 59.4998L114.542 49.9332L116.933 47.5415L126.5 57.1082L136.067 47.5415L138.458 49.9332L128.892 59.4998L138.458 69.0665L136.067 71.4582L126.5 61.8915L116.933 71.4582Z" fill="white"/>
</svg>
