<svg width="165" height="160" viewBox="0 0 165 160" fill="none" xmlns="http://www.w3.org/2000/svg">
<circle cx="80" cy="80" r="80" fill="#F5F5F5"/>
<path d="M30.6015 38.5627C30.2812 36.3769 31.7934 34.3453 33.9792 34.0249L98.6765 24.5426C100.862 24.2223 102.894 25.7345 103.214 27.9203L115.844 114.095C116.165 116.28 114.652 118.312 112.467 118.632L47.7694 128.115C45.5836 128.435 43.552 126.923 43.2316 124.737L30.6015 38.5627Z" fill="#A3A3A3"/>
<path d="M35.161 33.9721C35.0907 31.7641 36.8236 29.9171 39.0317 29.8468L104.387 27.7653C106.595 27.695 108.442 29.4279 108.512 31.6359L111.285 118.687C111.355 120.895 109.622 122.742 107.414 122.812L42.0588 124.894C39.8508 124.964 38.0038 123.231 37.9335 121.023L35.161 33.9721Z" fill="#D4D4D4"/>
<path d="M46.7227 72.2474C46.6954 71.3916 47.3672 70.6757 48.223 70.6484L97.8126 69.069C98.6685 69.0418 99.3844 69.7135 99.4117 70.5693C99.4389 71.4252 98.7672 72.1411 97.9113 72.1684L48.3217 73.7477C47.4659 73.775 46.75 73.1033 46.7227 72.2474Z" fill="#A3A3A3"/>
<path d="M47.0508 82.5785C47.0236 81.7226 47.6953 81.0067 48.5511 80.9795L98.1407 79.4001C98.9966 79.3728 99.7125 80.0445 99.7398 80.9004C99.767 81.7563 99.0953 82.4722 98.2395 82.4994L48.6498 84.0788C47.794 84.1061 47.0781 83.4343 47.0508 82.5785Z" fill="#A3A3A3"/>
<path d="M47.3809 92.9091C47.3536 92.0532 48.0254 91.3373 48.8812 91.31L98.4708 89.7306C99.3267 89.7034 100.043 90.3751 100.07 91.231C100.097 92.0868 99.4254 92.8027 98.5695 92.83L48.9799 94.4094C48.1241 94.4366 47.4082 93.7649 47.3809 92.9091Z" fill="#A3A3A3"/>
<path d="M47.7422 104.275C47.715 103.419 48.3867 102.703 49.2425 102.676L78.1698 101.754C79.0257 101.727 79.7416 102.399 79.7689 103.255C79.7961 104.111 79.1244 104.827 78.2685 104.854L49.3413 105.775C48.4854 105.802 47.7695 105.131 47.7422 104.275Z" fill="#A3A3A3"/>
<path d="M46.1237 40.5727C46.0886 39.4687 46.955 38.5452 48.059 38.5101L81.7074 37.4384C82.8114 37.4032 83.7348 38.2697 83.77 39.3737L84.4538 60.8423C84.4889 61.9464 83.6224 62.8698 82.5184 62.905L48.8701 63.9767C47.7661 64.0118 46.8426 63.1454 46.8075 62.0413L46.1237 40.5727Z" fill="white"/>
<path fill-rule="evenodd" clip-rule="evenodd" d="M65.7944 51.8719C66.2659 52.5579 67.2873 52.532 67.7234 51.8229L68.4956 50.5675C68.9285 49.8638 69.9397 49.8317 70.4163 50.5064L75.2585 57.3616C75.7875 58.1104 75.2714 59.147 74.355 59.1762L62.9793 59.5385C62.979 59.5385 62.9789 59.5382 62.9791 59.538C62.9792 59.5378 62.9791 59.5375 62.9788 59.5375L55.7494 59.7678C54.8397 59.7968 54.2578 58.8082 54.7247 58.0269L60.9195 47.659C61.3498 46.9389 62.3811 46.9061 62.8563 47.5974L65.7944 51.8719Z" fill="#D4D4D4"/>
<circle cx="55.7367" cy="46.5787" r="1.66171" transform="rotate(-1.8242 55.7367 46.5787)" fill="#D4D4D4"/>
<path d="M23.5031 89.6678C23.9841 88.1944 25.5684 87.3899 27.0418 87.8709C28.5152 88.352 29.3196 89.9363 28.8386 91.4097L15.6637 131.765C15.2783 132.946 14.6233 134.02 13.7505 134.904L10.668 138.025L10.0208 133.686C9.83751 132.458 9.94277 131.204 10.3282 130.023L23.5031 89.6678Z" fill="#404040"/>
<path d="M122.947 72.8949C124.263 67.9824 129.312 65.0671 134.225 66.3834L156.106 72.2463C161.018 73.5626 163.934 78.6121 162.617 83.5246L155.573 109.813C154.257 114.726 149.208 117.641 144.295 116.325L122.414 110.462C117.502 109.146 114.586 104.096 115.903 99.1836L122.947 72.8949Z" fill="#A3A3A3"/>
<path d="M125.847 74.6633C126.834 70.979 130.622 68.7925 134.306 69.7797L154.337 75.1471C158.022 76.1343 160.208 79.9214 159.221 83.6058L156.722 92.9324C155.735 96.6168 151.948 98.8033 148.263 97.816L128.232 92.4486C124.547 91.4614 122.361 87.6743 123.348 83.99L125.847 74.6633Z" fill="white"/>
<path fill-rule="evenodd" clip-rule="evenodd" d="M141.132 84.5434C141.385 85.3365 142.37 85.6074 142.992 85.0551L143.783 84.354C144.401 83.806 145.378 84.0679 145.639 84.8516L147.965 91.8376C148.255 92.7076 147.461 93.5505 146.575 93.3132L130.445 88.9912C129.566 88.7556 129.295 87.641 129.968 87.0282L137.908 79.7986C138.528 79.2338 139.525 79.5009 139.78 80.3002L141.132 84.5434Z" fill="#A3A3A3"/>
<circle cx="136.191" cy="76.359" r="1.30381" transform="rotate(15 136.191 76.359)" fill="#A3A3A3"/>
<path d="M95.3268 108.335C92.3849 104.187 93.363 98.4388 97.5116 95.4969L115.99 82.3931C120.138 79.4512 125.886 80.4293 128.828 84.5778L144.572 106.778C147.514 110.927 146.535 116.675 142.387 119.617L123.909 132.72C119.76 135.662 114.012 134.684 111.07 130.536L95.3268 108.335Z" fill="#E5E5E5"/>
<path d="M98.5391 107.23C96.3326 104.119 97.0662 99.808 100.178 97.6015L117.094 85.6054C120.205 83.3989 124.516 84.1325 126.723 87.2439L132.308 95.1201C134.515 98.2315 133.781 102.542 130.67 104.749L113.753 116.745C110.642 118.952 106.331 118.218 104.125 115.107L98.5391 107.23Z" fill="white"/>
<path fill-rule="evenodd" clip-rule="evenodd" d="M115.901 101.769C116.673 102.08 117.51 101.495 117.482 100.663L117.446 99.6081C117.419 98.7825 118.244 98.1973 119.014 98.4967L125.877 101.165C126.732 101.497 126.874 102.646 126.126 103.177L117.767 109.104C117.767 109.105 117.767 109.104 117.767 109.104C117.767 109.104 117.766 109.104 117.766 109.104L112.505 112.835C111.762 113.361 110.731 112.859 110.689 111.949L110.191 101.223C110.152 100.385 110.994 99.7886 111.772 100.103L115.901 101.769Z" fill="#A3A3A3"/>
<circle cx="106.447" cy="100.349" r="1.30381" transform="rotate(-35.3424 106.447 100.349)" fill="#A3A3A3"/>
</svg>
