<?xml version="1.0" encoding="UTF-8"?>
<svg version="1.1" xmlns="http://www.w3.org/2000/svg" width="220" height="213">
<path d="M0 0 C0.2784375 0.64710937 0.556875 1.29421875 0.84375 1.9609375 C1.2253125 2.63382813 1.606875 3.30671875 2 4 C4.48400985 4.66347631 4.48400985 4.66347631 7 5 C9.54190967 7.54190967 9.28855798 8.53780826 9.39477539 12.06958008 C9.43143814 13.12861038 9.46810089 14.18764069 9.50587463 15.27876282 C9.53616257 16.4307164 9.5664505 17.58266998 9.59765625 18.76953125 C9.63684677 19.95665207 9.67603729 21.14377289 9.71641541 22.36686707 C9.84082749 26.18185328 9.952225 29.99708117 10.0625 33.8125 C10.17863727 37.58853077 10.29754328 41.36445073 10.41929626 45.14030457 C10.49434109 47.49102699 10.565828 49.84186681 10.6330719 52.19282532 C10.86669328 59.8176586 11.35321344 67.39922183 12 75 C12.99229614 74.46789917 12.99229614 74.46789917 14.00463867 73.92504883 C14.76623291 73.51665771 15.52782715 73.1082666 16.3125 72.6875 C21.76638724 69.82092903 21.76638724 69.82092903 24.7734375 64.6953125 C25.07121094 63.42300781 25.07121094 63.42300781 25.375 62.125 C26.70320523 57.51336355 27.80037992 54.68060856 32 52 C39.62476532 50.94796273 46.92752626 52.88144863 54.25 54.8125 C55.82394531 55.20405273 55.82394531 55.20405273 57.4296875 55.60351562 C69.50018009 58.6975343 69.50018009 58.6975343 74.375 63.1875 C77.15232684 67.99441184 76.33393602 73.1179294 75.08203125 78.33984375 C74.67018151 79.87547864 74.24653967 81.40798887 73.8125 82.9375 C73.47412109 84.1606189 73.47412109 84.1606189 73.12890625 85.40844727 C72.65888483 87.09905554 72.18441109 88.7884321 71.70556641 90.4765625 C71.0179177 92.93591788 70.37009602 95.40277789 69.73046875 97.875 C69.32136088 99.39611569 68.91124823 100.91696159 68.5 102.4375 C68.23473511 103.49215454 68.23473511 103.49215454 67.96411133 104.56811523 C66.66453001 109.20508964 65.03632511 111.40065772 61 114 C58.29120665 115.35439668 55.99066732 115.06501451 53 115 C52.73968994 115.60666504 52.47937988 116.21333008 52.21118164 116.83837891 C50.89506028 119.18728811 49.83942666 120.10704889 47.62109375 121.5859375 C46.95150635 122.0392041 46.28191895 122.4924707 45.59204102 122.95947266 C44.88104248 123.42659668 44.17004395 123.8937207 43.4375 124.375 C42.71167725 124.85888184 41.98585449 125.34276367 41.23803711 125.84130859 C39.80209331 126.79860446 38.36439373 127.75327281 36.92480469 128.70507812 C35.34228639 129.76972514 33.79462435 130.88600261 32.2578125 132.015625 C28.06894708 135.08646584 24.40958025 137.1019717 19.1328125 137.359375 C15.03342426 136.66863559 12.59232104 134.09175904 10 131 C9.76345703 130.41943848 9.52691406 129.83887695 9.28320312 129.24072266 C8.10886733 126.79956901 7.21752477 125.59750358 5 124 C-0.66877866 122.98996186 -6.26298055 123.1982307 -12 123.375 C-13.63783582 123.40194198 -15.27569514 123.42749067 -16.91357422 123.45166016 C-29.67124573 123.70257611 -42.09382279 124.92009522 -54.58837891 127.54345703 C-60.23168909 128.71710726 -65.23106915 129.18609454 -71 129 C-71.2784375 128.35289062 -71.556875 127.70578125 -71.84375 127.0390625 C-72.2253125 126.36617188 -72.606875 125.69328125 -73 125 C-75.48400985 124.33652369 -75.48400985 124.33652369 -78 124 C-83.5841254 118.4158746 -81.16759177 101.52418345 -81.29052734 93.66235352 C-81.54344887 77.57842483 -82.11701227 61.86320012 -85 46 C-85.27730652 44.38563343 -85.55334869 42.77104916 -85.828125 41.15625 C-86.31758866 38.31009854 -86.82433749 35.46828561 -87.3515625 32.62890625 C-90.32069618 16.01248942 -90.32069618 16.01248942 -87.6875 12 C-86 11 -86 11 -83 11 C-82.814375 10.0409375 -82.814375 10.0409375 -82.625 9.0625 C-82.41875 8.381875 -82.2125 7.70125 -82 7 C-78.82919576 5.41459788 -75.37940566 5.71959625 -71.890625 5.60546875 C-70.18225974 5.53906516 -68.47392744 5.47180919 -66.765625 5.40380859 C-65.86521484 5.3689032 -64.96480469 5.3339978 -64.03710938 5.29803467 C-48.68008004 4.6889864 -33.5779809 3.64667782 -18.37988281 1.32104492 C-12.1575968 0.37044286 -6.2969093 -0.20011364 0 0 Z " fill="#CDCDCD" transform="translate(134,36)"/>
<path d="M0 0 C2.0812352 0.52293 4.15939036 1.0582627 6.234375 1.60546875 C7.28367187 1.86650391 8.33296875 2.12753906 9.4140625 2.39648438 C21.48455509 5.49050305 21.48455509 5.49050305 26.359375 9.98046875 C29.13670184 14.78738059 28.31831102 19.91089815 27.06640625 25.1328125 C26.65455651 26.66844739 26.23091467 28.20095762 25.796875 29.73046875 C25.45849609 30.95358765 25.45849609 30.95358765 25.11328125 32.20141602 C24.64325983 33.89202429 24.16878609 35.58140085 23.68994141 37.26953125 C23.0022927 39.72888663 22.35447102 42.19574664 21.71484375 44.66796875 C21.30573588 46.18908444 20.89562323 47.70993034 20.484375 49.23046875 C20.30753174 49.93357178 20.13068848 50.6366748 19.94848633 51.36108398 C18.64890501 55.99805839 17.02070011 58.19362647 12.984375 60.79296875 C10.27558165 62.14736543 7.97504232 61.85798326 4.984375 61.79296875 C4.72406494 62.39963379 4.46375488 63.00629883 4.19555664 63.63134766 C2.87943528 65.98025686 1.82380166 66.90001764 -0.39453125 68.37890625 C-1.06411865 68.83217285 -1.73370605 69.28543945 -2.42358398 69.75244141 C-3.13458252 70.21956543 -3.84558105 70.68668945 -4.578125 71.16796875 C-5.30394775 71.65185059 -6.02977051 72.13573242 -6.77758789 72.63427734 C-8.21353169 73.59157321 -9.65123127 74.54624156 -11.09082031 75.49804688 C-12.67333861 76.56269389 -14.22100065 77.67897136 -15.7578125 78.80859375 C-19.94667792 81.87943459 -23.60604475 83.89494045 -28.8828125 84.15234375 C-32.96850585 83.4639119 -35.43461041 80.88886605 -38.015625 77.79296875 C-38.75275983 76.52674064 -39.48218112 75.25598485 -40.203125 73.98046875 C-41.96121276 71.26559854 -42.75775527 70.85049874 -45.9921875 70.12890625 C-49.01567017 69.8810798 -51.98304877 69.75911224 -55.015625 69.79296875 C-55.015625 69.46296875 -55.015625 69.13296875 -55.015625 68.79296875 C-50.065625 68.29796875 -50.065625 68.29796875 -45.015625 67.79296875 C-45.9540625 66.52582031 -46.8925 65.25867188 -47.859375 63.953125 C-49.07923576 62.25470348 -50.29792434 60.55543964 -51.515625 58.85546875 C-52.13566406 58.02466797 -52.75570312 57.19386719 -53.39453125 56.33789062 C-56.81448663 51.50861297 -59.00519752 47.78781485 -58.47729492 41.75170898 C-56.99186383 35.44942783 -50.72297411 32.21184611 -45.703125 28.79296875 C-44.22777258 27.77226839 -42.75251118 26.75143645 -41.27734375 25.73046875 C-40.55981934 25.23933594 -39.84229492 24.74820313 -39.10302734 24.2421875 C-37.13612535 22.87662841 -35.21096697 21.46555517 -33.28515625 20.04296875 C-30.015625 17.79296875 -30.015625 17.79296875 -27.203125 16.84375 C-24.74579607 15.95273973 -24.74579607 15.95273973 -23.828125 13.1484375 C-23.56 12.10300781 -23.291875 11.05757812 -23.015625 9.98046875 C-19.1184059 -2.8005687 -11.84452393 -2.66563449 0 0 Z " fill="#E1E1E1" transform="translate(182.015625,89.20703125)"/>
<path d="M0 0 C1.88319268 1.88319268 1.13054285 5.11930137 1.1328125 7.625 C1.13376923 8.28709473 1.13472595 8.94918945 1.13571167 9.63134766 C1.13639326 11.03352961 1.13454042 12.4357147 1.13037109 13.83789062 C1.12502246 15.99095713 1.1303167 18.14381502 1.13671875 20.296875 C1.13605796 21.65625046 1.13477679 23.0156258 1.1328125 24.375 C1.13168457 25.62023437 1.13055664 26.86546875 1.12939453 28.1484375 C1 31 1 31 0 32 C-1.40568302 32.12726494 -2.81746862 32.18821449 -4.22851562 32.22119141 C-5.12614624 32.24436432 -6.02377686 32.26753723 -6.9486084 32.29141235 C-8.41264099 32.32118668 -8.41264099 32.32118668 -9.90625 32.3515625 C-10.9012854 32.37471527 -11.8963208 32.39786804 -12.92150879 32.42172241 C-15.02981327 32.46943554 -17.13817528 32.51466044 -19.24658203 32.55761719 C-22.48621652 32.62471452 -25.72547534 32.70244523 -28.96484375 32.78125 C-31.00779849 32.82616265 -33.050767 32.87045444 -35.09375 32.9140625 C-36.06977173 32.93796051 -37.04579346 32.96185852 -38.0513916 32.98648071 C-39.39783752 33.0117836 -39.39783752 33.0117836 -40.77148438 33.03759766 C-41.56566772 33.05456696 -42.35985107 33.07153625 -43.17810059 33.08901978 C-45 33 -45 33 -46 32 C-46.08790975 29.70848583 -46.10694038 27.41427476 -46.09765625 25.12109375 C-46.0962413 24.4344313 -46.09482635 23.74776886 -46.09336853 23.04029846 C-46.08775479 20.83932199 -46.07520007 18.63844591 -46.0625 16.4375 C-46.05748676 14.94856917 -46.05292355 13.45963676 -46.04882812 11.97070312 C-46.03778093 8.31376925 -46.02050713 4.65689442 -46 1 C-41.6991499 0.85460172 -37.39820923 0.71235494 -33.09716797 0.57275391 C-31.64076069 0.52507105 -30.18437905 0.47659711 -28.72802734 0.42724609 C-6.91450078 -0.31040939 -6.91450078 -0.31040939 0 0 Z " fill="#FDFDFD" transform="translate(111,52)"/>
<path d="M0 0 C6.41331524 2.5653261 10.77171466 9.09377345 13.8125 15.125 C14.61698815 18.29196393 14.4264632 19.77610979 13.8125 23.125 C10.05307701 27.51819545 5.51818353 30.56829734 0.75 33.75 C-0.658031 34.69981125 -2.06559751 35.65031152 -3.47265625 36.6015625 C-4.1262915 37.03952148 -4.77992676 37.47748047 -5.45336914 37.92871094 C-6.82194629 38.87282301 -8.14052027 39.88940168 -9.4375 40.9296875 C-11.9189051 42.62457581 -14.29733094 42.66470368 -17.2421875 42.5234375 C-20.73593232 41.80785121 -22.0320508 39.88839641 -24.1875 37.125 C-24.80109375 36.35027344 -25.4146875 35.57554687 -26.046875 34.77734375 C-31.031581 28.1676236 -31.031581 28.1676236 -31.63671875 24.12109375 C-30.97033957 19.67663432 -28.97569897 17.53338633 -25.48632812 14.78515625 C-23.49957982 13.34949166 -21.47987266 11.98025472 -19.4375 10.625 C-18.75945312 10.16480469 -18.08140625 9.70460938 -17.3828125 9.23046875 C-15.328863 7.84424808 -13.26116434 6.48152107 -11.1875 5.125 C-10.4658667 4.64562988 -9.7442334 4.16625977 -9.00073242 3.67236328 C-8.29795166 3.21587402 -7.5951709 2.75938477 -6.87109375 2.2890625 C-6.24001709 1.8760791 -5.60894043 1.4630957 -4.95874023 1.03759766 C-3.1875 0.125 -3.1875 0.125 0 0 Z " fill="#FCFCFC" transform="translate(159.1875,109.875)"/>
<path d="M0 0 C1.9019727 0.49673514 3.80173214 1.0020196 5.69921875 1.515625 C6.66150391 1.75539063 7.62378906 1.99515625 8.61523438 2.2421875 C14.20046407 3.74188931 17.94746859 4.98726255 21.38671875 9.765625 C22.68233713 16.19436003 18.99781861 24.99419393 16.38671875 30.765625 C12.35233618 33.45521338 9.04741684 33.30187009 4.38671875 32.765625 C-7.59144802 30.2008555 -7.59144802 30.2008555 -10.49609375 26.12109375 C-10.86476562 25.34378906 -11.2334375 24.56648438 -11.61328125 23.765625 C-5.16260043 24.38988443 1.04507605 25.42584133 7.38671875 26.765625 C6.06671875 23.465625 4.74671875 20.165625 3.38671875 16.765625 C2.06671875 17.095625 0.74671875 17.425625 -0.61328125 17.765625 C-3.61328125 12.015625 -3.61328125 12.015625 -3.61328125 9.765625 C-7.24328125 12.735625 -10.87328125 15.705625 -14.61328125 18.765625 C-16.11067708 17.49609375 -17.60807292 16.2265625 -19.10546875 14.95703125 C-20.61922204 13.6778098 -20.61922204 13.6778098 -22.61328125 12.765625 C-21.97489135 7.85859813 -21.26938103 3.81128403 -18.61328125 -0.421875 C-13.00388906 -3.81088278 -6.12129426 -1.43989897 0 0 Z " fill="#FBFBFB" transform="translate(184.61328125,94.234375)"/>
<path d="M0 0 C3.11562053 0.69637709 6.19827998 1.47329575 9.28515625 2.28735352 C10.85910156 2.67890625 10.85910156 2.67890625 12.46484375 3.07836914 C24.53533634 6.17238781 24.53533634 6.17238781 29.41015625 10.66235352 C32.18748309 15.46926536 31.36909227 20.59278292 30.1171875 25.81469727 C29.70533776 27.35033216 29.28169592 28.88284239 28.84765625 30.41235352 C28.50927734 31.63547241 28.50927734 31.63547241 28.1640625 32.88330078 C27.69404108 34.57390906 27.21956734 36.26328561 26.74072266 37.95141602 C26.05307395 40.4107714 25.40525227 42.8776314 24.765625 45.34985352 C24.35651713 46.8709692 23.94640448 48.3918151 23.53515625 49.91235352 C23.26989136 50.96700806 23.26989136 50.96700806 22.99926758 52.04296875 C21.70630914 56.65631235 20.1449213 58.98885475 16.03515625 61.47485352 C12.72265625 61.72485352 12.72265625 61.72485352 10.03515625 61.47485352 C10.09058594 60.92700195 10.14601562 60.37915039 10.203125 59.81469727 C10.28192502 50.12229505 3.8328514 43.63839777 -1.96484375 36.47485352 C-1.63484375 35.81485352 -1.30484375 35.15485352 -0.96484375 34.47485352 C-0.27519531 34.69141602 0.41445312 34.90797852 1.125 35.13110352 C9.94303318 37.80069476 9.94303318 37.80069476 19.03515625 37.47485352 C22.36626305 35.14388532 23.08565786 31.93927919 24.22265625 28.16235352 C24.56683594 27.0524707 24.91101563 25.94258789 25.265625 24.79907227 C26.04009465 21.45352065 26.47240059 18.88347875 26.03515625 15.47485352 C23.14436934 11.88427711 20.57255658 10.71733851 16.16796875 9.55297852 C15.03488281 9.25004883 13.90179688 8.94711914 12.734375 8.63500977 C11.55488281 8.3346582 10.37539062 8.03430664 9.16015625 7.72485352 C7.98839844 7.4090332 6.81664062 7.09321289 5.609375 6.76782227 C-2.06781042 4.74926612 -2.06781042 4.74926612 -9.96484375 4.47485352 C-14.55715444 7.49265769 -15.54482133 12.44022856 -16.96484375 17.47485352 C-18.28484375 17.47485352 -19.60484375 17.47485352 -20.96484375 17.47485352 C-20.30678098 11.20056535 -19.62575722 5.33633241 -14.90673828 0.78442383 C-10.62048984 -2.10612641 -4.85149854 -0.85931928 0 0 Z " fill="#9C9C9C" transform="translate(178.96484375,88.525146484375)"/>
<path d="M0 0 C1.65 0 3.3 0 5 0 C6.58104941 4.84039769 5.18470488 8.66568168 3.6484375 13.30859375 C3.39252838 14.11176529 3.13661926 14.91493683 2.87295532 15.7424469 C2.0512262 18.31112381 1.21313021 20.874134 0.375 23.4375 C-0.1663884 25.12662532 -0.7067629 26.81607596 -1.24609375 28.50585938 C-2.79828241 33.3481999 -4.39149785 38.17611406 -6 43 C-6.2358078 43.71450317 -6.4716156 44.42900635 -6.71456909 45.16516113 C-7.36248637 47.11796606 -8.0240575 49.06548187 -8.69140625 51.01171875 C-9.05951416 52.09541748 -9.42762207 53.17911621 -9.80688477 54.2956543 C-11.50892671 58.15354638 -13.43112561 59.84207595 -17 62 C-19.8023948 56.39521039 -17.63687568 49.99013829 -15.78996277 44.41221619 C-15.47126724 43.49114578 -15.15257172 42.57007538 -14.82421875 41.62109375 C-14.4983931 40.65019302 -14.17256744 39.6792923 -13.83686829 38.67897034 C-12.79828446 35.59456005 -11.74283192 32.51621447 -10.6875 29.4375 C-9.98919437 27.3655846 -9.29191853 25.29332183 -8.59570312 23.22070312 C-7.92280162 21.22885339 -7.24900335 19.23730633 -6.57421875 17.24609375 C-6.1052845 15.8614518 -6.1052845 15.8614518 -5.62687683 14.44883728 C-3.93996176 9.53239768 -2.11907284 4.74673937 0 0 Z " fill="#414141" transform="translate(37,115)"/>
<path d="M0 0 C0 1.32 0 2.64 0 4 C-8.00768469 5.04600931 -15.99567008 5.33091693 -24.0625 5.5625 C-25.10724487 5.59426834 -25.10724487 5.59426834 -26.1730957 5.62667847 C-39.11625991 6.01786891 -52.05106378 6.1212098 -65 6 C-65 4.68 -65 3.36 -65 2 C-43.41220871 0.35554912 -21.64745687 -0.26725255 0 0 Z " fill="#9E9E9E" transform="translate(131,104)"/>
<path d="M0 0 C0 1.32 0 2.64 0 4 C-8.18909229 4.77854852 -16.32334017 5.18861858 -24.546875 5.31640625 C-25.68408997 5.33718735 -26.82130493 5.35796844 -27.99298096 5.37937927 C-31.57860043 5.44407274 -35.16428472 5.50338154 -38.75 5.5625 C-41.20052718 5.60576175 -43.65104812 5.6493783 -46.1015625 5.69335938 C-52.06764247 5.7996702 -58.03378498 5.90157601 -64 6 C-64 4.68 -64 3.36 -64 2 C-55.02566252 1.14962388 -46.07156208 0.71060384 -37.0625 0.4375 C-36.39233856 0.41632111 -35.72217712 0.39514221 -35.03170776 0.37332153 C-23.35289823 0.00657425 -11.68423631 -0.11723314 0 0 Z " fill="#9D9D9D" transform="translate(131,117)"/>
<path d="M0 0 C0.495 1.98 0.495 1.98 1 4 C-8.87306056 4.78167324 -18.7252168 5.27224878 -28.625 5.5625 C-29.3154541 5.58367889 -30.0059082 5.60485779 -30.71728516 5.62667847 C-42.14646979 5.97518151 -53.565645 6.12368894 -65 6 C-64.67 4.68 -64.34 3.36 -64 2 C-57.13574512 1.7110912 -50.27130996 1.42678782 -43.40673828 1.14550781 C-41.0772685 1.04953353 -38.74784001 0.95255069 -36.41845703 0.85449219 C-11.59136091 -0.18928963 -11.59136091 -0.18928963 0 0 Z " fill="#9D9D9D" transform="translate(130,91)"/>
<path d="M0 0 C3.16115776 1.36983503 3.9927092 1.9890638 6 5 C6.99 5.33 7.98 5.66 9 6 C9 5.34 9 4.68 9 4 C11.46528135 4.39064415 12.73307988 4.73239371 14.51953125 6.5234375 C14.94621094 7.13445312 15.37289062 7.74546875 15.8125 8.375 C16.25207031 8.98085937 16.69164063 9.58671875 17.14453125 10.2109375 C18 12 18 12 17 15 C8.75 15 0.5 15 -8 15 C-6.47489648 11.18724121 -4.99242873 8.13982945 -2.875 4.6875 C-2.33617188 3.80449219 -1.79734375 2.92148438 -1.2421875 2.01171875 C-0.83226563 1.34785156 -0.42234375 0.68398437 0 0 Z " fill="#CFCFCF" transform="translate(83,64)"/>
<path d="M0 0 C0.99 2.31 1.98 4.62 3 7 C4.32 6.67 5.64 6.34 7 6 C7.67119549 7.4562545 8.33681807 8.91507867 9 10.375 C9.556875 11.59316406 9.556875 11.59316406 10.125 12.8359375 C11 15 11 15 11 17 C3.95625395 17.65523219 -2.45787446 15.50705231 -9 13 C-9.66 12.34 -10.32 11.68 -11 11 C-10.81141574 8.23409756 -10.11160366 7.12067912 -8.22265625 5.078125 C-7.50980469 4.47484375 -6.79695312 3.8715625 -6.0625 3.25 C-5.35222656 2.63640625 -4.64195312 2.0228125 -3.91015625 1.390625 C-2 0 -2 0 0 0 Z " fill="#9D9D9D" transform="translate(181,104)"/>
<path d="M0 0 C4.12751449 0.60698743 7.3321148 2.03810791 11 4 C11 4.66 11 5.32 11 6 C8.41209308 8.27261408 5.5113612 10.1572002 2.6875 12.125 C1.90181641 12.68832031 1.11613281 13.25164062 0.30664062 13.83203125 C-0.45068359 14.36441406 -1.20800781 14.89679688 -1.98828125 15.4453125 C-3.03302612 16.18031982 -3.03302612 16.18031982 -4.09887695 16.93017578 C-6 18 -6 18 -9 18 C-9 12.72 -9 7.44 -9 2 C-6.36 2.33 -3.72 2.66 -1 3 C-0.67 2.01 -0.34 1.02 0 0 Z " fill="#9B9B9B" transform="translate(154,128)"/>
<path d="M0 0 C1.32 0 2.64 0 4 0 C4.76154287 16.01062865 5.14834983 31.97137097 5 48 C4.67 48 4.34 48 4 48 C3.13744682 42.73597865 2.28324835 37.47069212 1.43652344 32.20410156 C1.14776101 30.41532491 0.85678035 28.62690481 0.56347656 26.83886719 C0.14053891 24.25808434 -0.27421495 21.67609402 -0.6875 19.09375 C-0.81874268 18.30383667 -0.94998535 17.51392334 -1.08520508 16.70007324 C-1.86923714 11.73848066 -2.29251801 7.02523868 -2 2 C-1.34 1.34 -0.68 0.68 0 0 Z " fill="#9F9F9F" transform="translate(47,48)"/>
<path d="M0 0 C0 1.32 0 2.64 0 4 C-8.7713859 4.89427808 -17.43723836 5.12469647 -26.25 5.0625 C-28.10044922 5.05573242 -28.10044922 5.05573242 -29.98828125 5.04882812 C-32.99224069 5.03718487 -35.99609266 5.02083376 -39 5 C-39 3.68 -39 2.36 -39 1 C-25.9837256 0.10999833 -13.0448865 -0.11578302 0 0 Z " fill="#9E9E9E" transform="translate(106,132)"/>
<path d="M0 0 C0.495 1.98 0.495 1.98 1 4 C-11.01604528 4.68944522 -22.96267515 5.15130716 -35 5 C-31.92771068 2.95180712 -30.55211956 2.60896788 -26.9921875 2.1484375 C-25.51105469 1.95507812 -25.51105469 1.95507812 -24 1.7578125 C-22.96875 1.63148437 -21.9375 1.50515625 -20.875 1.375 C-19.86695312 1.2409375 -18.85890625 1.106875 -17.8203125 0.96875 C-11.82815212 0.20808715 -6.03888611 -0.13810342 0 0 Z " fill="#A2A2A2" transform="translate(134,36)"/>
<path d="M0 0 C1.25619141 0.00451172 2.51238281 0.00902344 3.80664062 0.01367188 C6.89197663 0.02540319 9.97721316 0.041819 13.0625 0.0625 C13.0625 0.3925 13.0625 0.7225 13.0625 1.0625 C12.17727661 1.19096313 12.17727661 1.19096313 11.27416992 1.32202148 C8.59902607 1.71185599 5.92451571 2.10588014 3.25 2.5 C2.32123047 2.63470703 1.39246094 2.76941406 0.43554688 2.90820312 C-0.9034668 3.10639648 -0.9034668 3.10639648 -2.26953125 3.30859375 C-3.09171143 3.42904053 -3.9138916 3.5494873 -4.76098633 3.67358398 C-7.10674057 4.03867892 -7.10674057 4.03867892 -9.9375 5.0625 C-11.49868428 5.12990865 -13.0625252 5.14764456 -14.625 5.125 C-15.83736328 5.11146484 -15.83736328 5.11146484 -17.07421875 5.09765625 C-17.99654297 5.08025391 -17.99654297 5.08025391 -18.9375 5.0625 C-19.5975 3.7425 -20.2575 2.4225 -20.9375 1.0625 C-13.98535719 -0.24941997 -7.05305097 -0.04808058 0 0 Z " fill="#A0A0A0" transform="translate(81.9375,159.9375)"/>
</svg>
