<svg width="165" height="165" viewBox="0 0 165 165" fill="none" xmlns="http://www.w3.org/2000/svg">
<circle cx="80" cy="80" r="80" fill="#F5F5F5"/>
<path d="M33.8103 42.205C33.9302 39.9992 35.8156 38.3081 38.0215 38.428L98.8265 41.7317C101.032 41.8515 102.723 43.7369 102.604 45.9428L98.3775 123.723C98.2577 125.929 96.3723 127.62 94.1664 127.5L33.3614 124.196C31.1555 124.076 29.4644 122.191 29.5843 119.985L33.8103 42.205Z" fill="url(#paint0_linear_4972_21850)"/>
<path d="M45.4149 49.793C45.4749 48.69 46.4175 47.8445 47.5205 47.9044L77.1773 49.5158C78.2803 49.5757 79.1258 50.5184 79.0659 51.6213L78.0461 70.3911C77.9861 71.494 77.0434 72.3396 75.9405 72.2796L46.2837 70.6683C45.1807 70.6084 44.3352 69.6657 44.3951 68.5627L45.4149 49.793Z" fill="white"/>
<path fill-rule="evenodd" clip-rule="evenodd" d="M61.9959 61.0063C62.4067 61.7304 63.4265 61.7923 63.922 61.1234L64.4859 60.3621C64.9777 59.6983 65.9879 59.7533 66.4047 60.4665L69.9871 66.5966C70.4497 67.3882 69.8463 68.3765 68.9308 68.3268L58.9878 67.7865C58.9875 67.7865 58.9874 67.7862 58.9876 67.786C58.9878 67.7858 58.9877 67.7855 58.9874 67.7855L52.7469 67.4465C51.8381 67.3971 51.3434 66.3622 51.8757 65.6239L57.9558 57.191C58.4464 56.5105 59.4767 56.5665 59.8907 57.2961L61.9959 61.0063Z" fill="#D4D4D4"/>
<circle cx="53.5328" cy="55.6766" r="1.48679" transform="rotate(3.11002 53.5328 55.6766)" fill="#D4D4D4"/>
<path d="M43.5224 77.8647C43.564 77.0997 44.2178 76.5132 44.9829 76.5548L89.3096 78.9632C90.0747 79.0047 90.6611 79.6586 90.6196 80.4237C90.578 81.1887 89.9241 81.7752 89.1591 81.7336L44.8323 79.3252C44.0673 79.2836 43.4808 78.6297 43.5224 77.8647Z" fill="#A3A3A3"/>
<path d="M43.0185 87.1001C43.0601 86.335 43.7139 85.7485 44.479 85.7901L88.8057 88.1985C89.5708 88.2401 90.1572 88.894 90.1157 89.659C90.0741 90.424 89.4202 91.0105 88.6552 90.969L44.3284 88.5605C43.5634 88.519 42.9769 87.8651 43.0185 87.1001Z" fill="#A3A3A3"/>
<path d="M42.5185 96.3344C42.5601 95.5694 43.2139 94.9829 43.979 95.0245L88.3057 97.4329C89.0708 97.4745 89.6572 98.1283 89.6157 98.8934C89.5741 99.6584 88.9202 100.245 88.1552 100.203L43.8284 97.7949C43.0634 97.7533 42.4769 97.0995 42.5185 96.3344Z" fill="#A3A3A3"/>
<path d="M41.9677 106.494C42.0093 105.729 42.6631 105.142 43.4282 105.184L69.2855 106.589C70.0505 106.63 70.637 107.284 70.5954 108.049C70.5538 108.814 69.9 109.401 69.1349 109.359L43.2777 107.954C42.5126 107.913 41.9261 107.259 41.9677 106.494Z" fill="#A3A3A3"/>
<path d="M74.463 26.741C75.245 24.6749 77.5538 23.6339 79.6199 24.4159L136.572 45.9713C138.638 46.7533 139.679 49.0622 138.897 51.1283L111.324 123.98C110.542 126.046 108.233 127.087 106.167 126.305L49.215 104.749C47.1489 103.967 46.1079 101.658 46.8899 99.5923L74.463 26.741Z" fill="#D8D8D8"/>
<path d="M83.2256 37.4857C83.6166 36.4527 84.771 35.9322 85.8041 36.3232L113.582 46.8366C114.615 47.2276 115.135 48.382 114.744 49.415L108.09 66.9954C107.699 68.0285 106.545 68.549 105.512 68.158L77.7343 57.6446C76.7012 57.2536 76.1807 56.0992 76.5717 55.0661L83.2256 37.4857Z" fill="white"/>
<path fill-rule="evenodd" clip-rule="evenodd" d="M95.6382 53.1905C95.8106 54.0049 96.7638 54.3726 97.4385 53.8851L98.2036 53.3323C98.8732 52.8484 99.8194 53.2066 100.001 54.0125L101.56 60.9407C101.761 61.8352 100.887 62.5945 100.029 62.27L90.7166 58.7452C90.7159 58.7449 90.7158 58.744 90.7164 58.7436C90.717 58.7431 90.7169 58.7422 90.7162 58.7419L84.8739 56.5307C84.0227 56.2085 83.8645 55.0724 84.5953 54.5299L92.943 48.3332C93.6165 47.8332 94.5815 48.1984 94.7552 49.0191L95.6382 53.1905Z" fill="#D4D4D4"/>
<circle cx="89.1806" cy="45.5506" r="1.48679" transform="rotate(20.7308 89.1806 45.5506)" fill="#D4D4D4"/>
<path d="M72.923 63.6685C73.1942 62.952 73.9949 62.5909 74.7115 62.8622L116.229 78.576C116.946 78.8472 117.307 79.648 117.036 80.3645C116.765 81.0811 115.964 81.4421 115.247 81.1709L73.7294 65.457C73.0128 65.1858 72.6518 64.3851 72.923 63.6685Z" fill="#A3A3A3"/>
<path d="M69.6496 72.3179C69.9208 71.6014 70.7215 71.2404 71.4381 71.5116L112.956 87.2254C113.673 87.4966 114.034 88.2974 113.762 89.0139C113.491 89.7305 112.69 90.0915 111.974 89.8203L70.4559 74.1064C69.7394 73.8352 69.3784 73.0345 69.6496 72.3179Z" fill="#A3A3A3"/>
<path d="M66.3761 80.9674C66.6473 80.2508 67.4481 79.8898 68.1646 80.161L109.683 95.8748C110.399 96.146 110.76 96.9468 110.489 97.6633C110.218 98.3799 109.417 98.7409 108.7 98.4697L67.1825 82.7558C66.466 82.4846 66.1049 81.6839 66.3761 80.9674Z" fill="#A3A3A3"/>
<path d="M62.7746 90.483C63.0458 89.7664 63.8465 89.4054 64.5631 89.6766L88.7818 98.843C89.4984 99.1142 89.8594 99.915 89.5882 100.632C89.317 101.348 88.5163 101.709 87.7997 101.438L63.5809 92.2715C62.8644 92.0003 62.5034 91.1995 62.7746 90.483Z" fill="#A3A3A3"/>
<path d="M64.3096 82.0527C65.9096 82.0527 67.3559 83.006 67.9863 84.4766L69.6309 88.3154H126.474C128.683 88.3154 130.474 90.1063 130.474 92.3154V138C130.473 140.209 128.683 142 126.474 142H28C25.791 142 24.0002 140.209 24 138V92.3154C24 92.0169 24.0327 91.7261 24.0947 91.4463C24.033 91.167 24 90.8769 24 90.5791V86.0527C24 83.8436 25.7909 82.0527 28 82.0527H64.3096Z" fill="#878787"/>
<defs>
<linearGradient id="paint0_linear_4972_21850" x1="111.719" y1="100.142" x2="41.9144" y2="84.5251" gradientUnits="userSpaceOnUse">
<stop stop-color="#C2C2C2"/>
<stop offset="1" stop-color="#BABABA"/>
</linearGradient>
</defs>
</svg>
