<svg width="160" height="160" viewBox="0 0 160 160" fill="none" xmlns="http://www.w3.org/2000/svg">
<circle cx="80" cy="80" r="80" fill="#F5F5F5"/>
<path d="M15.0002 42C15.0002 39.7909 16.7911 38 19.0002 38L86.0002 38C88.2094 38 90.0002 39.7909 90.0002 42L90.0002 129C90.0002 131.209 88.2094 133 86.0002 133L19.0002 133C16.7911 133 15.0002 131.209 15.0002 129L15.0002 42Z" fill="#737373"/>
<path d="M12.0002 42C12.0002 39.7909 13.7911 38 16.0002 38L83.0002 38C85.2094 38 87.0002 39.7909 87.0002 42L87.0002 129C87.0002 131.209 85.2094 133 83.0002 133L16.0002 133C13.7911 133 12.0002 131.209 12.0002 129L12.0002 42Z" fill="#A3A3A3"/>
<path d="M10.0002 42C10.0002 39.7909 11.7911 38 14.0002 38L79.3887 38C81.5979 38 83.3887 39.7909 83.3887 42L83.3887 129.095C83.3887 131.304 81.5979 133.095 79.3887 133.095L14.0002 133.095C11.7911 133.095 10.0002 131.304 10.0002 129.095L10.0002 42Z" fill="#D4D4D4"/>
<path d="M20.8647 80.4056C20.8647 79.5493 21.5589 78.8551 22.4152 78.8551L72.03 78.8551C72.8863 78.8551 73.5804 79.5493 73.5804 80.4056C73.5804 81.2619 72.8863 81.956 72.03 81.956L22.4152 81.956C21.5589 81.956 20.8647 81.2619 20.8647 80.4056Z" fill="#A3A3A3"/>
<path d="M20.8641 90.7421C20.8641 89.8858 21.5583 89.1917 22.4146 89.1917L72.0293 89.1917C72.8856 89.1917 73.5798 89.8858 73.5798 90.7421C73.5798 91.5984 72.8856 92.2926 72.0293 92.2926L22.4146 92.2926C21.5583 92.2926 20.8641 91.5984 20.8641 90.7421Z" fill="#A3A3A3"/>
<path d="M20.865 101.078C20.865 100.222 21.5592 99.5273 22.4155 99.5273L72.0302 99.5273C72.8865 99.5273 73.5807 100.222 73.5807 101.078C73.5807 101.934 72.8865 102.628 72.0302 102.628L22.4154 102.628C21.5592 102.628 20.865 101.934 20.865 101.078Z" fill="#A3A3A3"/>
<path d="M20.8645 112.449C20.8645 111.593 21.5587 110.899 22.415 110.899L51.3569 110.899C52.2132 110.899 52.9074 111.593 52.9074 112.449C52.9074 113.305 52.2132 114 51.3569 114L22.415 114C21.5587 114 20.8645 113.305 20.8645 112.449Z" fill="#A3A3A3"/>
<path d="M21.2747 48.728C21.2747 47.6235 22.1701 46.728 23.2747 46.728H56.94C58.0446 46.728 58.94 47.6235 58.94 48.728V70.2075C58.94 71.3121 58.0446 72.2075 56.94 72.2075H23.2747C22.1701 72.2075 21.2747 71.3121 21.2747 70.2075V48.728Z" fill="white"/>
<path fill-rule="evenodd" clip-rule="evenodd" d="M40.5755 60.6475C41.025 61.3482 42.0467 61.3548 42.5051 60.6599L43.3169 59.4297C43.7719 58.7402 44.7836 58.7403 45.2385 59.4298L49.8601 66.4357C50.365 67.201 49.8161 68.2206 48.8993 68.2206H37.5178C37.5175 68.2206 37.5174 68.2203 37.5176 68.2201C37.5177 68.2199 37.5176 68.2196 37.5174 68.2196H30.2843C29.3741 68.2196 28.824 67.2131 29.3155 66.447L35.8372 56.2816C36.2902 55.5755 37.322 55.5756 37.7749 56.2816L40.5755 60.6475Z" fill="#D4D4D4"/>
<circle cx="30.6916" cy="55.037" r="1.66171" fill="#D4D4D4"/>
<path d="M7 49C7 47.8954 7.89543 47 9 47H13C14.1046 47 15 47.8954 15 49C15 50.1046 14.1046 51 13 51H9C7.89543 51 7 50.1046 7 49Z" fill="#737373"/>
<path d="M7 58C7 56.8954 7.89543 56 9 56H13C14.1046 56 15 56.8954 15 58C15 59.1046 14.1046 60 13 60H9C7.89543 60 7 59.1046 7 58Z" fill="#737373"/>
<path d="M7 67C7 65.8954 7.89543 65 9 65H13C14.1046 65 15 65.8954 15 67C15 68.1046 14.1046 69 13 69H9C7.89543 69 7 68.1046 7 67Z" fill="#737373"/>
<path d="M7 76C7 74.8954 7.89543 74 9 74H13C14.1046 74 15 74.8954 15 76C15 77.1046 14.1046 78 13 78H9C7.89543 78 7 77.1046 7 76Z" fill="#737373"/>
<path d="M7 85C7 83.8954 7.89543 83 9 83H13C14.1046 83 15 83.8954 15 85C15 86.1046 14.1046 87 13 87H9C7.89543 87 7 86.1046 7 85Z" fill="#737373"/>
<path d="M7 94C7 92.8954 7.89543 92 9 92H13C14.1046 92 15 92.8954 15 94C15 95.1046 14.1046 96 13 96H9C7.89543 96 7 95.1046 7 94Z" fill="#737373"/>
<path d="M7 103C7 101.895 7.89543 101 9 101H13C14.1046 101 15 101.895 15 103C15 104.105 14.1046 105 13 105H9C7.89543 105 7 104.105 7 103Z" fill="#737373"/>
<path d="M7 112C7 110.895 7.89543 110 9 110H13C14.1046 110 15 110.895 15 112C15 113.105 14.1046 114 13 114H9C7.89543 114 7 113.105 7 112Z" fill="#737373"/>
<path d="M7 121C7 119.895 7.89543 119 9 119H13C14.1046 119 15 119.895 15 121C15 122.105 14.1046 123 13 123H9C7.89543 123 7 122.105 7 121Z" fill="#737373"/>
<path d="M123.618 14C139.423 14.0001 152.235 26.7727 152.235 42.5283C152.235 58.2838 139.423 71.0565 123.618 71.0566C120.652 71.0566 117.792 70.6057 115.102 69.7706C114.613 69.6189 114.089 69.6148 113.604 69.7781L102.319 73.5782C100.4 74.2246 98.6278 72.2812 99.4479 70.4294L102.983 62.4462C102.99 62.4309 103.007 62.4226 103.023 62.4262C103.057 62.4339 103.08 62.3924 103.056 62.3674C98.0701 57.2332 95.0001 50.2386 95 42.5283C95 26.7726 107.813 14 123.618 14Z" fill="#404040"/>
<circle cx="110.54" cy="42.2014" r="2.8777" fill="white"/>
<circle cx="123.202" cy="42.2014" r="2.8777" fill="white"/>
<circle cx="135.864" cy="42.2014" r="2.8777" fill="white"/>
</svg>
