<svg width="125" height="98" viewBox="0 0 125 98" fill="none" xmlns="http://www.w3.org/2000/svg">
<path d="M54.7155 97.1562H13.6815C10.4911 97.2407 6.65284 95.7979 4.00977 93.164C1.36669 90.53 -0.0813205 86.7051 0.00352982 83.5256V42.634C-0.0813205 39.4546 1.36669 35.6297 4.00977 32.9957C6.65284 30.3618 10.4911 28.919 13.6815 29.0035H54.7155C57.9061 28.919 61.7442 30.3618 64.3873 32.9957C67.0304 35.6297 68.4784 39.4546 68.3935 42.634V57.4235C68.4779 59.8024 66.873 62.4405 64.7174 63.4661C63.3163 64.0663 62.4657 66.1632 63.0548 67.565L67.9802 82.2896C68.3095 83.2655 68.4106 84.3442 68.2686 85.364C67.9165 91.5312 60.895 97.6403 54.7155 97.1562Z" fill="#B58FD1"/>
<ellipse cx="27.3591" cy="46.5328" rx="3.9084" ry="3.89618" fill="white"/>
<ellipse cx="41.364" cy="46.5328" rx="3.9084" ry="3.89618" fill="white"/>
<path d="M29.1509 44.825C30.1879 44.825 31.0278 45.6631 31.0278 46.6951C31.0278 47.7271 30.188 48.5651 29.1509 48.5652C28.1137 48.5652 27.2739 47.7272 27.2739 46.6951C27.274 45.6631 28.1138 44.825 29.1509 44.825Z" fill="black" stroke="black" stroke-width="0.480842"/>
<path d="M43.1548 44.825C44.1918 44.825 45.0317 45.6631 45.0317 46.6951C45.0317 47.7271 44.1919 48.5651 43.1548 48.5652C42.1176 48.5652 41.2778 47.7272 41.2778 46.6951C41.2779 45.6631 42.1177 44.825 43.1548 44.825Z" fill="black" stroke="black" stroke-width="0.480842"/>
<path d="M37.782 59.0969L37.2925 57.572C39.2545 57.0446 40.2594 56.5599 41.8523 55.2992L42.6239 57.4529C43.098 58.7764 42.4149 60.2344 41.0945 60.717C39.7306 61.2155 38.2258 60.4796 37.782 59.0969Z" fill="#FF5353"/>
<path d="M24.4272 52.3772C30.4527 59.6825 38.4324 59.6825 44.6207 52.3772" stroke="black" stroke-width="1.92337" stroke-linecap="round"/>
<path d="M99.8613 0C113.592 0 124.723 11.0956 124.724 24.7832C124.724 38.471 113.592 49.5674 99.8613 49.5674C99.6757 49.5674 99.4906 49.5638 99.306 49.5597C99.3039 49.5597 99.3031 49.5624 99.3048 49.5636C99.3065 49.5647 99.3057 49.5674 99.3036 49.5674H80.9058C79.1464 49.5674 78.2261 47.4763 79.4145 46.179L81.3045 44.1157C82.0472 43.305 81.9991 42.0549 81.2677 41.234C77.3687 36.858 75 31.0964 75 24.7832C75.0002 11.0958 86.131 0.000260129 99.8613 0Z" fill="#404040"/>
<path fill-rule="evenodd" clip-rule="evenodd" d="M94.459 16.0954C98.3758 13.8414 103.387 15.1769 105.65 19.0846C107.685 22.5984 106.802 26.9891 103.756 29.4782C103.848 29.5534 103.93 29.6454 103.993 29.7546L106.446 33.9909C106.726 34.4741 106.56 35.0923 106.076 35.3708C105.592 35.6488 104.973 35.4826 104.693 34.9997L102.24 30.7643C102.193 30.6832 102.159 30.5978 102.137 30.5114C98.3057 32.3727 93.6264 30.9904 91.461 27.2516C89.1977 23.3438 90.5424 18.3498 94.459 16.0954Z" fill="white"/>
<path d="M111.621 9.85852L111.221 12.9458L113.304 15.2591L110.217 14.8592L107.904 16.9426L108.303 13.8552L106.22 11.542L109.307 11.9419L111.621 9.85852Z" fill="#0EA5E9"/>
<path d="M89.8178 30.4318L92.3365 34.0275L96.7056 34.456L93.1099 36.9747L92.6814 41.3437L90.1627 37.7481L85.7936 37.3196L89.3893 34.8009L89.8178 30.4318Z" fill="#FF984A"/>
</svg>
