<svg width="125" height="98" viewBox="0 0 125 98" fill="none" xmlns="http://www.w3.org/2000/svg">
<path d="M54.7155 97.1562H13.6815C10.4911 97.2407 6.65284 95.7979 4.00977 93.164C1.36669 90.53 -0.0813205 86.7051 0.00352982 83.5256V42.634C-0.0813205 39.4546 1.36669 35.6297 4.00977 32.9957C6.65284 30.3618 10.4911 28.919 13.6815 29.0035H54.7155C57.9061 28.919 61.7442 30.3618 64.3873 32.9957C67.0304 35.6297 68.4784 39.4546 68.3935 42.634V57.4235C68.4779 59.8024 66.873 62.4405 64.7174 63.4661C63.3163 64.0663 62.4657 66.1632 63.0548 67.565L67.9802 82.2896C68.3095 83.2655 68.4106 84.3442 68.2686 85.364C67.9165 91.5312 60.895 97.6403 54.7155 97.1562Z" fill="#D4D4D4"/>
<ellipse cx="27.3591" cy="46.5329" rx="3.9084" ry="3.89618" fill="white"/>
<ellipse cx="41.364" cy="46.5329" rx="3.9084" ry="3.89618" fill="white"/>
<path d="M29.1509 44.8252C30.1879 44.8253 31.0278 45.6633 31.0278 46.6953C31.0278 47.7273 30.188 48.5654 29.1509 48.5654C28.1137 48.5654 27.2739 47.7274 27.2739 46.6953C27.274 45.6633 28.1138 44.8252 29.1509 44.8252Z" fill="black" stroke="black" stroke-width="0.480842"/>
<path d="M43.1548 44.8252C44.1918 44.8253 45.0317 45.6633 45.0317 46.6953C45.0317 47.7273 44.1919 48.5654 43.1548 48.5654C42.1176 48.5654 41.2778 47.7274 41.2778 46.6953C41.2779 45.6633 42.1177 44.8252 43.1548 44.8252Z" fill="black" stroke="black" stroke-width="0.480842"/>
<path d="M24.4272 57.8564C30.4527 50.5511 38.4324 50.5511 44.6207 57.8564" stroke="black" stroke-width="1.92337" stroke-linecap="round"/>
<path d="M99.8613 0C113.592 0 124.723 11.0956 124.724 24.7832C124.724 38.471 113.592 49.5674 99.8613 49.5674C99.6757 49.5674 99.4906 49.5638 99.306 49.5597C99.3039 49.5597 99.3031 49.5624 99.3048 49.5636C99.3065 49.5647 99.3057 49.5674 99.3036 49.5674H80.9058C79.1464 49.5674 78.2261 47.4763 79.4145 46.179L81.3045 44.1157C82.0472 43.305 81.9991 42.0549 81.2677 41.234C77.3687 36.858 75 31.0964 75 24.7832C75.0002 11.0958 86.131 0.000260129 99.8613 0Z" fill="#404040"/>
<g clip-path="url(#clip0_5455_24852)">
<path d="M101.625 29.6914H96.75C96.75 24.8164 99.35 23.1914 101.137 22.2164C101.787 21.8914 102.275 21.5664 102.6 21.2414C103.413 20.4289 103.088 19.2914 102.925 18.9664C102.438 17.8289 101.3 16.6914 99.1875 16.6914C95.775 16.6914 95.125 19.7789 95.125 20.4289L90.25 19.7789C90.575 17.0164 93.0125 11.8164 99.1875 11.8164C102.925 11.8164 106.175 13.9289 107.475 17.0164C108.613 19.7789 108.125 22.7039 106.175 24.6539C105.363 25.4664 104.387 25.9539 103.575 26.4414C102.113 27.2539 101.625 28.0664 101.625 29.6914ZM102.438 34.5664C102.447 34.9992 102.371 35.4296 102.212 35.8323C102.053 36.235 101.815 36.602 101.513 36.9116C101.21 37.2212 100.849 37.4672 100.45 37.6352C100.051 37.8032 99.6221 37.8898 99.1891 37.8899C98.7562 37.89 98.3277 37.8036 97.9286 37.6358C97.5295 37.468 97.168 37.2222 96.8653 36.9127C96.5625 36.6033 96.3246 36.2365 96.1656 35.8338C96.0065 35.4312 95.9296 35.0008 95.9391 34.568C95.9579 33.7189 96.3084 32.9108 96.9155 32.3168C97.5226 31.7228 98.3381 31.3901 99.1875 31.3899C100.037 31.3897 100.853 31.722 101.46 32.3157C102.067 32.9094 102.418 33.7173 102.438 34.5664Z" fill="white"/>
</g>
<defs>
<clipPath id="clip0_5455_24852">
<rect width="26" height="26" fill="white" transform="translate(87 11.8164)"/>
</clipPath>
</defs>
</svg>
