<svg width="30" height="30" viewBox="0 0 30 30" fill="none" xmlns="http://www.w3.org/2000/svg">
<path d="M12.502 12.5005H7.50195C4.74053 12.5005 2.50195 10.2619 2.50195 7.50049C2.50195 4.73906 4.74053 2.50049 7.50195 2.50049C10.2634 2.50049 12.502 4.73906 12.502 7.50049V9.72271" stroke="#0EA5E9" stroke-width="3"/>
<path d="M12.502 17.5005V22.5005C12.502 25.2619 10.2634 27.5005 7.50195 27.5005C4.74053 27.5005 2.50195 25.2619 2.50195 22.5005C2.50195 19.7391 4.74053 17.5005 7.50195 17.5005H9.72418" stroke="#0EA5E9" stroke-width="3"/>
<path d="M17.502 17.5005V22.5005C17.502 25.2619 19.7405 27.5005 22.502 27.5005C25.2634 27.5005 27.502 25.2619 27.502 22.5005C27.502 19.7391 25.2634 17.5005 22.502 17.5005H20.2797" stroke="#0EA5E9" stroke-width="3"/>
<path d="M21.3374 2.84631C21.5457 2.38521 22.2004 2.38521 22.4087 2.84631L23.7931 5.91166C23.852 6.04206 23.9565 6.1465 24.0869 6.20539L27.1522 7.58984C27.6133 7.7981 27.6133 8.45288 27.1522 8.66113L24.0869 10.0456C23.9565 10.1045 23.852 10.2089 23.7931 10.3393L22.4087 13.4047C22.2004 13.8658 21.5457 13.8658 21.3374 13.4047L19.9529 10.3393C19.8941 10.2089 19.7896 10.1045 19.6592 10.0456L16.5939 8.66113C16.1328 8.45288 16.1328 7.7981 16.5939 7.58984L19.6592 6.20539C19.7896 6.1465 19.8941 6.04206 19.9529 5.91167L21.3374 2.84631Z" stroke="#0EA5E9" stroke-width="3"/>
</svg>
