<svg width="14" height="10" viewBox="0 0 14 10" fill="none" xmlns="http://www.w3.org/2000/svg">
<path d="M13.0749 1.46632C12.9983 1.18291 12.8487 0.924532 12.6411 0.716919C12.4335 0.509307 12.1751 0.359701 11.8917 0.282999C10.8541 3.05178e-05 6.67833 3.05181e-05 6.67833 3.05181e-05C6.67833 3.05181e-05 2.50233 0.0085958 1.46478 0.291564C1.18137 0.368271 0.922996 0.517884 0.715392 0.725506C0.507788 0.933129 0.358197 1.19151 0.281516 1.47493C-0.0323187 3.31846 -0.154061 6.12756 0.290133 7.89734C0.366823 8.18075 0.516417 8.43913 0.724021 8.64674C0.931624 8.85435 1.18999 9.00396 1.4734 9.08066C2.51095 9.36363 6.68685 9.36363 6.68685 9.36363C6.68685 9.36363 10.8627 9.36363 11.9002 9.08066C12.1836 9.00397 12.442 8.85436 12.6496 8.64675C12.8572 8.43914 13.0068 8.18076 13.0835 7.89734C13.4145 6.05121 13.5165 3.24382 13.0749 1.46632Z" fill="#FF0000"/>
<path d="M5.34912 6.68836L8.81326 4.68188L5.34912 2.67541L5.34912 6.68836Z" fill="white"/>
</svg>
