<svg width="41" height="50" viewBox="0 0 41 50" fill="none" xmlns="http://www.w3.org/2000/svg">
<g filter="url(#filter0_d_3670_69403)">
<path d="M20.5 20.25C19.5054 20.25 18.5516 19.8549 17.8483 19.1517C17.1451 18.4484 16.75 17.4946 16.75 16.5C16.75 15.5054 17.1451 14.5516 17.8483 13.8483C18.5516 13.1451 19.5054 12.75 20.5 12.75C21.4946 12.75 22.4484 13.1451 23.1517 13.8483C23.8549 14.5516 24.25 15.5054 24.25 16.5C24.25 16.9925 24.153 17.4801 23.9645 17.9351C23.7761 18.39 23.4999 18.8034 23.1517 19.1517C22.8034 19.4999 22.39 19.7761 21.9351 19.9645C21.4801 20.153 20.9925 20.25 20.5 20.25ZM20.5 6C17.7152 6 15.0445 7.10625 13.0754 9.07538C11.1062 11.0445 10 13.7152 10 16.5C10 24.375 20.5 36 20.5 36C20.5 36 31 24.375 31 16.5C31 13.7152 29.8938 11.0445 27.9246 9.07538C25.9555 7.10625 23.2848 6 20.5 6Z" fill="white"/>
</g>
<defs>
<filter id="filter0_d_3670_69403" x="0" y="0" width="41" height="50" filterUnits="userSpaceOnUse" color-interpolation-filters="sRGB">
<feFlood flood-opacity="0" result="BackgroundImageFix"/>
<feColorMatrix in="SourceAlpha" type="matrix" values="0 0 0 0 0 0 0 0 0 0 0 0 0 0 0 0 0 0 127 0" result="hardAlpha"/>
<feOffset dy="4"/>
<feGaussianBlur stdDeviation="5"/>
<feComposite in2="hardAlpha" operator="out"/>
<feColorMatrix type="matrix" values="0 0 0 0 0.302968 0 0 0 0 0.302968 0 0 0 0 0.302968 0 0 0 0.81 0"/>
<feBlend mode="normal" in2="BackgroundImageFix" result="effect1_dropShadow_3670_69403"/>
<feBlend mode="normal" in="SourceGraphic" in2="effect1_dropShadow_3670_69403" result="shape"/>
</filter>
</defs>
</svg>
