<svg width="16" height="16" viewBox="0 0 16 16" fill="none" xmlns="http://www.w3.org/2000/svg">
<g opacity="0.4" clip-path="url(#clip0_4179_9987)">
<path d="M6.66659 6.66668H3.99992C2.52716 6.66668 1.33325 5.47277 1.33325 4.00001C1.33325 2.52725 2.52716 1.33334 3.99992 1.33334C5.47268 1.33334 6.66659 2.52725 6.66659 4.00001V5.1852" stroke="#1C2024" stroke-width="2"/>
<path d="M6.66659 9.33334V12C6.66659 13.4728 5.47268 14.6667 3.99992 14.6667C2.52716 14.6667 1.33325 13.4728 1.33325 12C1.33325 10.5273 2.52716 9.33334 3.99992 9.33334H5.1851" stroke="#1C2024" stroke-width="2"/>
<path d="M9.33325 9.33334V12C9.33325 13.4728 10.5272 14.6667 11.9999 14.6667C13.4727 14.6667 14.6666 13.4728 14.6666 12C14.6666 10.5273 13.4727 9.33334 11.9999 9.33334H10.8147" stroke="#1C2024" stroke-width="2"/>
<path d="M11.3811 1.51778C11.4921 1.27186 11.8414 1.27186 11.9524 1.51778L12.6908 3.15264C12.7222 3.22218 12.7779 3.27788 12.8475 3.30929L14.4823 4.04767C14.7282 4.15873 14.7282 4.50795 14.4823 4.61902L12.8475 5.3574C12.7779 5.38881 12.7222 5.44451 12.6908 5.51405L11.9524 7.14891C11.8414 7.39482 11.4921 7.39482 11.3811 7.14891L10.6427 5.51405C10.6113 5.44451 10.5556 5.38881 10.486 5.3574L8.85119 4.61902C8.60527 4.50795 8.60527 4.15873 8.85119 4.04767L10.486 3.30929C10.5556 3.27788 10.6113 3.22218 10.6427 3.15264L11.3811 1.51778Z" fill="#1C2024" stroke="#1C2024" stroke-width="2"/>
</g>
<defs>
<clipPath id="clip0_4179_9987">
<rect width="16" height="16" fill="white"/>
</clipPath>
</defs>
</svg>
