<svg width="14" height="10" viewBox="0 0 14 10" fill="none" xmlns="http://www.w3.org/2000/svg">
<path d="M13.075 1.46629C12.9983 1.18288 12.8487 0.924501 12.6411 0.716889C12.4335 0.509276 12.1751 0.35967 11.8917 0.282968C10.8542 2.07398e-10 6.67839 5.51687e-10 6.67839 5.51687e-10C6.67839 5.51687e-10 2.50239 0.00856528 1.46484 0.291534C1.18143 0.36824 0.923057 0.517854 0.715453 0.725476C0.507849 0.933098 0.358258 1.19148 0.281577 1.4749C-0.0322577 3.31843 -0.154 6.12753 0.290195 7.89731C0.366884 8.18072 0.516478 8.4391 0.724082 8.64671C0.931685 8.85432 1.19005 9.00393 1.47346 9.08063C2.51101 9.3636 6.68691 9.3636 6.68691 9.3636C6.68691 9.3636 10.8628 9.3636 11.9003 9.08063C12.1837 9.00393 12.442 8.85433 12.6497 8.64672C12.8573 8.43911 13.0069 8.18073 13.0836 7.89731C13.4146 6.05118 13.5166 3.24379 13.075 1.46629Z" fill="#FF0000"/>
<path d="M5.34924 6.68824L8.81338 4.68177L5.34924 2.67529L5.34924 6.68824Z" fill="white"/>
</svg>
