<svg width="640" height="157" viewBox="0 0 639.958 157.001" fill="none" xmlns="http://www.w3.org/2000/svg">
<g id="Group">
<path id="Vector" d="M639.958 0H619.163V124.768H639.958V0Z" fill="#1C2024"/>
<path id="Vector_2" d="M593.689 46.2688C602.787 56.1463 606.426 68.6232 604.866 82.9195H534.684C535.464 88.1182 537.284 92.797 540.403 96.9559C543.522 101.115 547.941 104.494 552.88 106.054C557.818 107.613 563.537 107.613 568.736 106.314C575.494 104.754 581.732 100.855 585.371 93.5768L602.787 100.855C596.029 112.812 585.891 120.09 572.635 123.209C559.378 126.069 546.901 123.989 535.724 116.451C524.287 108.913 517.789 98.5155 515.969 84.999C514.15 71.4824 517.529 59.2655 526.106 48.3483C534.684 37.4311 545.861 31.9725 559.638 31.7125C573.414 31.4526 584.852 36.1314 593.949 46.2688H593.689ZM584.852 67.8433V66.8036C583.032 61.8649 579.393 57.446 575.234 54.3268C570.815 51.2076 565.876 49.3881 560.678 49.3881C555.479 49.3881 550.54 51.2076 546.121 54.3268C541.962 57.446 538.323 61.8649 536.764 66.8036V67.8433C536.504 67.8433 584.852 67.8433 584.852 67.8433Z" fill="#1C2024"/>
<path id="Vector_3" d="M489.716 106.054H474.9V87.5982H478.279H493.355V106.054H508.431V124.769H489.716V106.054Z" fill="#1C2024"/>
<path id="Vector_4" d="M448.125 106.054V124.769H429.67V106.054H444.746V87.5982H459.822H463.202V106.054H448.125Z" fill="#1C2024"/>
<path id="Vector_5" d="M489.716 50.4277V31.7124H508.431V50.4277H493.355V68.883H478.279H474.9V50.4277H489.716Z" fill="#1C2024"/>
<path id="Vector_6" d="M463.202 68.883H474.899H478.278V87.5982H474.899H463.202H459.822V68.883H444.746V50.4277H429.67V31.7124H448.125V50.4277H463.202V68.883Z" fill="#1C2024"/>
<path id="Vector_7" d="M416.154 31.7124H395.36V124.509H416.154V31.7124Z" fill="#1C2024"/>
<path id="Vector_8" d="M416.154 0H395.36V17.6755H416.154V0Z" fill="#1C2024"/>
<path id="Vector_9" d="M381.582 21.8355H360.788V62.3852H381.582V21.8355Z" fill="#1C2024"/>
<path id="Vector_10" d="M360.789 0H317.64V21.8344H360.789V0Z" fill="#1C2024"/>
<path id="Vector_11" d="M360.789 62.3852V84.2196H317.64V124.769H296.845V21.8355H314.001H317.64V62.3852H360.789Z" fill="#1C2024"/>
<path id="Vector_12" d="M281.248 65.2439C284.107 75.3813 284.107 85.2588 281.248 95.3962C278.389 105.534 272.67 113.592 264.092 119.83C255.775 126.068 246.157 128.668 235.24 128.148C224.323 127.628 215.745 123.209 208.987 114.891V157.001H188.192V32.2323H208.987V43.9293C216.265 36.1313 225.102 31.9723 236.02 31.4525C246.677 30.9326 256.295 33.7919 264.612 40.2903C272.93 46.7886 278.389 55.1065 281.508 64.984L281.248 65.2439ZM259.934 92.7969C263.053 86.5585 263.833 80.0601 262.533 73.0419C261.233 66.2836 257.854 60.5651 252.655 56.1462C247.457 51.7273 241.218 49.6478 233.94 49.6478C226.922 49.6478 220.943 52.2472 216.005 57.4458C211.066 62.6445 208.467 68.3631 207.947 75.3813C207.427 82.1396 208.467 88.8978 211.586 95.1363C214.705 101.375 219.384 105.534 226.142 107.613C232.9 109.693 239.399 109.433 245.897 106.573C252.395 103.714 256.814 99.0353 259.934 92.7969Z" fill="#1C2024"/>
<path id="Vector_13" d="M174.676 32.2328H153.881V125.029H174.676V32.2328Z" fill="#1C2024"/>
<path id="Vector_14" d="M174.676 0.258918H153.881V17.9345H174.676V0.258918Z" fill="#1C2024"/>
<path id="Vector_15" d="M140.104 31.7124H107.352V50.4277H140.104V31.7124Z" fill="#1C2024"/>
<path id="Vector_16" d="M107.352 50.4282H86.5575V124.769H107.352V50.4282Z" fill="#1C2024"/>
<path id="Vector_17" d="M94.0963 0.520375H57.4456V19.2356H94.0963V0.520375Z" fill="#1C2024"/>
<path id="Vector_18" d="M57.4456 19.2361H36.6509V124.769H57.4456V19.2361Z" fill="#1C2024"/>
<path id="Vector_19" d="M36.6507 0.520375H0V19.2356H36.6507V0.520375Z" fill="#1C2024"/>
</g>
</svg>
